<svg width="180" height="180" viewBox="0 0 180 180" fill="none" xmlns="http://www.w3.org/2000/svg">
<path d="M175 153.214C175 165.239 165.239 175 153.214 175H26.7857C14.7614 175 5 165.239 5 153.214V26.7857C5 14.7614 14.7614 5 26.7857 5H153.429C165.212 5 175 14.7353 175 26.7857V153.214Z" stroke="white" stroke-width="10"/>
<path d="M40.1858 79.4509L40.3739 82.0842C40.3739 82.2723 41.8786 103.151 42.0667 109.17C42.0667 113.872 38.8691 129.484 36.8001 138.136L34.543 147.353L43.7596 145.096C52.4119 143.027 67.8357 139.453 72.538 139.641C78.557 139.641 99.2474 141.146 99.4355 141.146L102.069 141.334L130.471 112.932L122.195 104.656L97.9307 129.484C91.9117 129.108 77.9927 128.167 72.9142 127.979C70.0928 127.979 65.3904 128.732 60.5 129.672L83.8237 106.348C85.5165 106.913 87.2094 107.477 89.0903 107.477C97.1784 107.477 103.762 100.894 103.762 92.8056C103.762 84.7176 97.1784 78.1343 89.0903 78.1343C81.0023 78.1343 74.419 84.7176 74.419 92.8056C74.419 94.6866 74.7951 96.5675 75.5475 98.0723L52.4119 121.208C53.1643 116.317 53.9167 111.803 53.9167 108.982C53.9167 103.903 52.9762 89.7961 52.4119 83.9652L87.3975 48.9796L141.381 102.963L149.657 94.6866L87.3975 32.2393L40.1858 79.4509Z" fill="white"/>
<path d="M151.448 68.6808L111.002 28.2353L102.726 36.5113L143.172 76.9568L151.448 68.6808Z" fill="white"/>
</svg>
