<?xml version="1.0" encoding="utf-8"?>
<!DOCTYPE svg PUBLIC "-//W3C//DTD SVG 1.1//EN" "http://www.w3.org/Graphics/SVG/1.1/DTD/svg11.dtd">
<svg version="1.1" id="Layer_1" xmlns="http://www.w3.org/2000/svg" xmlns:xlink="http://www.w3.org/1999/xlink" x="0px" y="0px"
	 viewBox="0 0 54 54" enable-background="new 0 0 54 54" xml:space="preserve">
<g>
	<path fill="#edeaf4" d="M54,50c0,2.2-1.8,4-4,4H4c-2.2,0-4-1.8-4-4V4c0-2.2,1.8-4,4-4h46c2.2,0,4,1.8,4,4V50z"/>
	<polygon fill="#41414b" points="8.9,37.7 27.5,48.4 46.2,37.7 46.1,19.2 41,22.2 41,34.7 27.5,42.5 14,34.7 14,19.1 27.5,11.3 
		38.4,17.6 43.5,14.6 27.5,5.4 8.9,16.2 	"/>
	<polygon fill="#41414b" points="37.1,21.4 27.4,15.8 17.6,21.4 17.6,29.6 22,27 22,23.9 27.4,20.8 32.7,23.9 32.7,30.1 27.4,33.2 
		24.7,31.6 20.3,34.2 27.4,38.2 37.1,32.6 	"/>
</g>
</svg>
